HIERARCHY
ROOT Hips
{
	OFFSET -0.001795 -0.223333 0.028219
	CHANNELS 6 Xposition Yposition Zposition Zrotation Yrotation Xrotation 
	JOINT LeftUpLeg
	{
		OFFSET 0.069520 -0.091406 -0.006815
		CHANNELS 3 Zrotation Yrotation Xrotation
		JOINT LeftLeg
		{
			OFFSET 0.034277 -0.375199 -0.004496
			CHANNELS 3 Zrotation Yrotation Xrotation
			JOINT LeftFoot
			{
				OFFSET -0.013596 -0.397961 -0.043693
				CHANNELS 3 Zrotation Yrotation Xrotation
				JOINT LeftToe
				{
					OFFSET 0.026358 -0.055791 0.119288
					CHANNELS 3 Zrotation Yrotation Xrotation
					End Site
					{
						OFFSET 0.000000 0.000000 0.000000
					}
				}
			}
		}
	}
	JOINT RightUpLeg
	{
		OFFSET -0.067670 -0.090522 -0.004320
		CHANNELS 3 Zrotation Yrotation Xrotation
		JOINT RightLeg
		{
			OFFSET -0.038290 -0.382569 -0.008850
			CHANNELS 3 Zrotation Yrotation Xrotation
			JOINT RightFoot
			{
				OFFSET 0.015774 -0.398415 -0.042312
				CHANNELS 3 Zrotation Yrotation Xrotation
				JOINT RightToe
				{
					OFFSET -0.025372 -0.048144 0.123348
					CHANNELS 3 Zrotation Yrotation Xrotation
					End Site
					{
						OFFSET 0.000000 0.000000 0.000000
					}
				}
			}
		}
	}
	JOINT Spine
	{
		OFFSET -0.002533 0.108963 -0.026696
		CHANNELS 3 Zrotation Yrotation Xrotation
		JOINT Spine1
		{
			OFFSET 0.005487 0.135180 0.001092
			CHANNELS 3 Zrotation Yrotation Xrotation
			JOINT Spine2
			{
				OFFSET 0.001457 0.052922 0.025425
				CHANNELS 3 Zrotation Yrotation Xrotation
				JOINT Neck
				{
					OFFSET -0.002778 0.213870 -0.042857
					CHANNELS 3 Zrotation Yrotation Xrotation
					JOINT Head
					{
						OFFSET 0.005152 0.064970 0.051349
						CHANNELS 3 Zrotation Yrotation Xrotation
						End Site
						{
							OFFSET 0.000000 0.000000 0.000000
						}
					}
				}
				JOINT LeftShoulder
				{
					OFFSET 0.078845 0.121749 -0.034090
					CHANNELS 3 Zrotation Yrotation Xrotation
					JOINT LeftArm
					{
						OFFSET 0.090977 0.030469 -0.008868
						CHANNELS 3 Zrotation Yrotation Xrotation
						JOINT LeftForeArm
						{
							OFFSET 0.259612 -0.012772 -0.027456
							CHANNELS 3 Zrotation Yrotation Xrotation
							JOINT LeftHand
							{
								OFFSET 0.249234 0.008986 -0.001171
								CHANNELS 3 Zrotation Yrotation Xrotation
								End Site
								{
									OFFSET 0.000000 0.000000 0.000000
								}
							}
						}
					}
				}
				JOINT RightShoulder
				{
					OFFSET -0.081759 0.118833 -0.038615
					CHANNELS 3 Zrotation Yrotation Xrotation
					JOINT RightArm
					{
						OFFSET -0.096012 0.032551 -0.009143
						CHANNELS 3 Zrotation Yrotation Xrotation
						JOINT RightForeArm
						{
							OFFSET -0.253742 -0.013329 -0.021401
							CHANNELS 3 Zrotation Yrotation Xrotation
							JOINT RightHand
							{
								OFFSET -0.255298 0.007772 -0.005559
								CHANNELS 3 Zrotation Yrotation Xrotation
								End Site
								{
									OFFSET 0.000000 0.000000 0.000000
								}
							}
						}
					}
				}
			}
		}
	}
}
MOTION
Frames: 11
Frame Time: 0.050000
0.000000 0.922779 0.000000 -0.344637 -16.777968 3.274285 -0.509669 -1.517311 -32.849559 -2.242498 0.751592 18.243942 5.301691 11.644216 18.128290 0.000000 0.000000 0.000000 3.667159 0.017187 -1.860663 3.801981 1.291904 27.167523 -4.973981 -9.013022 -5.455821 0.000000 0.000000 0.000000 -3.617973 3.210709 47.175635 -8.597699 2.633538 -18.036690 -3.281074 6.045810 30.168936 7.284034 -4.877143 -11.858543 0.000000 0.000000 0.000000 -16.975386 -17.178362 8.542702 -44.436583 -16.251833 -2.295044 20.991306 -42.432152 -5.344015 0.000000 0.000000 0.000000 25.902102 9.662146 4.577140 54.687124 20.603370 1.018655 -19.945561 49.003974 -5.312813 0.000000 0.000000 0.000000 
-0.007446 0.919912 0.042760 -0.956100 -15.179268 2.823646 -0.246008 -1.597651 -31.563163 -2.584582 0.977950 21.673541 5.094619 11.432846 15.747154 0.000000 0.000000 0.000000 3.852875 0.097219 -2.392983 5.917756 1.074347 34.061175 -4.479204 -10.006191 -1.562180 0.000000 0.000000 0.000000 -4.730515 3.180881 45.674095 -6.780218 2.187102 -16.499238 -4.970408 6.115216 30.558110 6.048005 -3.874214 -11.800968 0.000000 0.000000 0.000000 -15.813362 -15.735846 7.509547 -44.339645 -15.415383 -2.569161 19.542236 -40.677723 -4.671254 0.000000 0.000000 0.000000 28.664946 11.539046 6.084429 53.491623 18.964839 0.136509 -22.929101 51.004344 -6.875287 0.000000 0.000000 0.000000 
-0.013608 0.920321 0.087166 -0.281206 -14.315173 1.975657 -2.482722 -2.330526 -31.114062 -0.773954 0.589717 27.858663 4.475808 10.269947 10.613659 0.000000 0.000000 0.000000 1.170743 0.332832 -3.832686 7.780188 0.870443 42.669537 -2.207688 -6.057440 1.237617 0.000000 0.000000 0.000000 -6.132399 3.693781 46.101356 -6.549078 2.201239 -15.115779 -4.593401 6.897222 28.882909 4.657294 -2.765333 -9.976830 0.000000 0.000000 0.000000 -17.199126 -18.496147 8.650792 -44.390015 -15.768442 -2.136521 21.854779 -37.783174 -5.321680 0.000000 0.000000 0.000000 28.864571 10.266339 5.747894 51.560776 19.198920 0.165895 -18.536666 50.393933 -4.805723 0.000000 0.000000 0.000000 
-0.018855 0.923915 0.132239 0.061716 -14.203048 0.061019 -3.395785 -2.462698 -27.822784 -1.011480 0.946696 31.661454 3.224717 7.962104 8.430715 0.000000 0.000000 0.000000 0.368327 0.677065 -6.869542 9.317670 0.957158 53.553993 -1.133420 -7.175873 9.350830 0.000000 0.000000 0.000000 -6.444836 3.808355 46.383073 -8.447090 3.017973 -12.682805 -3.454661 6.824505 28.486594 5.503831 -3.753182 -7.997132 0.000000 0.000000 0.000000 -16.366081 -19.478457 8.927509 -44.932861 -16.109724 -1.942436 21.899312 -38.060667 -5.438743 0.000000 0.000000 0.000000 29.243414 9.707340 5.368040 51.843042 17.454857 -0.538503 -18.426548 51.610696 -4.916857 0.000000 0.000000 0.000000 
-0.023760 0.923044 0.177328 -0.132801 -12.362856 -1.354037 -4.270262 -2.635634 -25.230447 -0.914386 0.901774 35.060515 3.078820 7.430046 5.581848 0.000000 0.000000 0.000000 0.023170 1.057456 -10.222562 10.524646 0.154653 62.354064 -2.121453 -9.478287 11.416707 0.000000 0.000000 0.000000 -6.127317 3.332290 47.244093 -8.149681 2.859601 -14.419268 -3.385322 6.552618 31.044637 4.626267 -3.062992 -7.801965 0.000000 0.000000 0.000000 -16.602580 -19.195991 8.789869 -44.598424 -15.927123 -2.220987 22.199360 -39.075155 -5.677898 0.000000 0.000000 0.000000 29.589983 8.131369 4.540043 51.615863 16.878907 -1.121829 -16.020159 52.405291 -3.668778 0.000000 0.000000 0.000000 
-0.028039 0.921879 0.221925 -0.441902 -12.579437 -2.829133 -5.010862 -2.490012 -21.412975 -0.041501 0.648135 36.534888 3.174823 7.098555 2.404370 0.000000 0.000000 0.000000 0.465321 1.654397 -14.652798 10.417487 0.608425 67.652272 -3.729825 -12.321166 11.047662 0.000000 0.000000 0.000000 -4.792883 2.741404 47.521202 -9.425770 3.320448 -14.503013 -3.081939 5.613557 31.351207 3.774349 -2.484495 -7.696455 0.000000 0.000000 0.000000 -15.835134 -18.048769 8.331421 -47.418718 -14.818811 -2.767610 21.758845 -41.630195 -5.648293 0.000000 0.000000 0.000000 30.138660 7.280715 3.519374 50.946572 14.740724 -1.946125 -14.674632 53.667338 -3.358957 0.000000 0.000000 0.000000 
-0.031889 0.921573 0.266084 -1.083648 -11.232143 -3.871648 -6.121895 -2.328823 -17.377065 0.915877 0.029255 37.255716 3.692801 7.688364 -0.538781 0.000000 0.000000 0.000000 0.373416 2.269852 -19.223247 10.160969 0.130944 68.098641 -4.465065 -13.279967 8.984223 0.000000 0.000000 0.000000 -2.954912 1.574126 47.541305 -8.884370 3.164695 -14.660649 -3.060623 4.924854 31.692164 3.494485 -2.345532 -7.414655 0.000000 0.000000 0.000000 -16.603220 -16.781448 7.850954 -48.682900 -14.271086 -3.115754 19.598222 -43.410688 -4.935218 0.000000 0.000000 0.000000 31.026789 6.341816 2.787858 49.795163 13.143713 -2.642535 -11.548754 53.996613 -1.960764 0.000000 0.000000 0.000000 
-0.035716 0.921032 0.309527 -1.872717 -10.305670 -4.203955 -6.758910 -1.950341 -13.354916 1.893932 -0.591428 37.226761 4.042511 7.963635 -3.351389 0.000000 0.000000 0.000000 -0.074896 3.046504 -25.164104 9.481644 -0.090866 64.288105 -5.576124 -15.005206 5.823740 0.000000 0.000000 0.000000 -0.879946 0.402460 47.260303 -8.731750 3.106326 -15.158892 -2.518407 4.367984 32.150781 3.323946 -2.390935 -6.302358 0.000000 0.000000 0.000000 -16.052197 -15.983601 7.443312 -51.587426 -14.061484 -3.360030 19.433354 -44.180104 -4.747620 0.000000 0.000000 0.000000 31.327373 5.078692 1.871413 49.307266 11.820383 -3.236062 -10.829575 53.927072 -1.619247 0.000000 0.000000 0.000000 
-0.039983 0.921064 0.352304 -2.577447 -9.207801 -4.840039 -7.004664 -1.478669 -9.556379 2.272744 -0.966151 37.104586 4.238722 8.296310 -3.845779 0.000000 0.000000 0.000000 0.105841 3.625019 -29.031742 7.040276 0.625447 54.961582 -5.018393 -13.635877 4.564786 0.000000 0.000000 0.000000 0.670267 -0.526057 47.513590 -7.569175 2.741439 -15.198027 -2.304534 3.465046 31.887150 3.681587 -2.743259 -6.797292 0.000000 0.000000 0.000000 -17.820640 -14.686794 7.067189 -51.282044 -13.716655 -3.542993 16.155774 -45.283988 -3.485780 0.000000 0.000000 0.000000 30.801856 3.968211 0.927374 48.682247 9.345691 -4.117377 -7.899310 53.329175 -0.359046 0.000000 0.000000 0.000000 
-0.045331 0.919182 0.395216 -2.916616 -7.961854 -4.730072 -7.764071 -1.134660 -6.877834 3.267208 -1.649437 37.999668 4.131251 7.692970 -5.249498 0.000000 0.000000 0.000000 0.376534 3.875876 -30.754700 3.908372 1.164326 40.700931 -3.792109 -10.628082 3.279726 0.000000 0.000000 0.000000 2.960338 -1.756378 46.215191 -6.272095 2.294248 -16.026277 -3.233376 2.218223 33.499648 4.338156 -3.524124 -7.031841 0.000000 0.000000 0.000000 -17.311054 -13.215851 6.558400 -53.608832 -12.928596 -4.210202 14.255843 -47.229801 -2.438375 0.000000 0.000000 0.000000 29.809132 2.741910 -0.136504 49.179143 7.463897 -4.971739 -6.033112 54.427185 0.510583 0.000000 0.000000 0.000000 
-0.052008 0.914586 0.439854 -2.898713 -7.700973 -4.681623 -8.215233 -0.661915 -3.757938 3.730353 -1.918205 38.226753 3.665753 6.456830 -5.764649 0.000000 0.000000 0.000000 0.587049 3.993189 -31.285114 1.469420 1.075573 25.286139 -1.475317 -6.606765 6.172829 0.000000 0.000000 0.000000 3.975285 -2.206629 45.578969 -5.024293 1.895294 -15.615150 -3.371571 1.741577 33.062662 4.446017 -3.350295 -9.540631 0.000000 0.000000 0.000000 -16.877321 -12.293455 6.088612 -55.447399 -12.608970 -4.286703 10.841459 -47.829652 -0.918159 0.000000 0.000000 0.000000 29.157349 2.103881 -0.728966 50.857257 6.183006 -5.458119 -7.744303 54.184399 -0.391948 0.000000 0.000000 0.000000 
